<mxfile host="Electron" agent="Mozilla/5.0 (Macintosh; Intel Mac OS X 10_15_7) AppleWebKit/537.36 (KHTML, like Gecko) draw.io/28.1.2 Chrome/138.0.7204.243 Electron/37.4.0 Safari/537.36" version="28.1.2" pages="13">
  <diagram id="mHdgXSSDg3P1Vtlx_zm2" name="overview">
    <mxGraphModel dx="1234" dy="836" grid="0" gridSize="10" guides="1" tooltips="1" connect="1" arrows="1" fold="1" page="1" pageScale="1" pageWidth="1169" pageHeight="827" math="0" shadow="0">
      <root>
        <mxCell id="0" />
        <mxCell id="1" parent="0" />
        <mxCell id="3fQte9pRHBFsXC9MxjXT-3" value="" style="rounded=0;whiteSpace=wrap;html=1;align=left;fillColor=#ffcd28;strokeColor=#000000;gradientColor=#ffa500;" parent="1" vertex="1">
          <mxGeometry x="20" y="20" width="60" height="20" as="geometry" />
        </mxCell>
        <mxCell id="3fQte9pRHBFsXC9MxjXT-4" value="Area 6 - Discovery Surveys and Analysis" style="rounded=0;whiteSpace=wrap;html=1;align=left;verticalAlign=top;fillColor=#f5f5f5;fontColor=#333333;strokeColor=#666666;" parent="1" vertex="1">
          <mxGeometry x="20" y="40" width="1060" height="770" as="geometry" />
        </mxCell>
        <mxCell id="3fQte9pRHBFsXC9MxjXT-11" value="" style="rounded=0;whiteSpace=wrap;html=1;align=left;fillColor=#ffcd28;strokeColor=#000000;gradientColor=#ffa500;" parent="1" vertex="1">
          <mxGeometry x="60" y="183" width="40" height="13" as="geometry" />
        </mxCell>
        <mxCell id="3fQte9pRHBFsXC9MxjXT-12" value="0610&lt;br&gt;Annotations" style="rounded=0;whiteSpace=wrap;html=1;align=left;verticalAlign=top;fillColor=#f5f5f5;fontColor=#333333;strokeColor=#666666;" parent="1" vertex="1">
          <mxGeometry x="60" y="196" width="140" height="80" as="geometry" />
        </mxCell>
        <mxCell id="3fQte9pRHBFsXC9MxjXT-15" value="" style="rounded=0;whiteSpace=wrap;html=1;align=left;fillColor=#ffcd28;strokeColor=#000000;gradientColor=#ffa500;" parent="1" vertex="1">
          <mxGeometry x="219" y="183" width="40" height="13" as="geometry" />
        </mxCell>
        <mxCell id="3fQte9pRHBFsXC9MxjXT-16" value="0612&lt;br&gt;Annotation Reviews" style="rounded=0;whiteSpace=wrap;html=1;align=left;verticalAlign=top;fillColor=#f5f5f5;fontColor=#333333;strokeColor=#666666;" parent="1" vertex="1">
          <mxGeometry x="219" y="196" width="140" height="80" as="geometry" />
        </mxCell>
        <mxCell id="3fQte9pRHBFsXC9MxjXT-13" value="" style="rounded=0;whiteSpace=wrap;html=1;align=left;fillColor=#ffcd28;strokeColor=#000000;gradientColor=#ffa500;" parent="1" vertex="1">
          <mxGeometry x="60" y="75" width="40" height="13" as="geometry" />
        </mxCell>
        <mxCell id="3fQte9pRHBFsXC9MxjXT-14" value="0602&lt;br&gt;Survey Reports" style="rounded=0;whiteSpace=wrap;html=1;align=left;verticalAlign=top;fillColor=#f5f5f5;fontColor=#333333;strokeColor=#666666;" parent="1" vertex="1">
          <mxGeometry x="60" y="88" width="140" height="80" as="geometry" />
        </mxCell>
        <mxCell id="3fQte9pRHBFsXC9MxjXT-19" value="" style="rounded=0;whiteSpace=wrap;html=1;align=left;fillColor=#ffcd28;strokeColor=#000000;gradientColor=#ffa500;" parent="1" vertex="1">
          <mxGeometry x="61" y="405" width="40" height="13" as="geometry" />
        </mxCell>
        <mxCell id="3fQte9pRHBFsXC9MxjXT-20" value="0620&lt;br&gt;Resource Profiling" style="rounded=0;whiteSpace=wrap;html=1;align=left;verticalAlign=top;fillColor=#f5f5f5;fontColor=#333333;strokeColor=#666666;" parent="1" vertex="1">
          <mxGeometry x="61" y="418" width="140" height="80" as="geometry" />
        </mxCell>
        <mxCell id="3fQte9pRHBFsXC9MxjXT-21" value="" style="rounded=0;whiteSpace=wrap;html=1;align=left;fillColor=#ffcd28;strokeColor=#000000;gradientColor=#ffa500;" parent="1" vertex="1">
          <mxGeometry x="220.5" y="405" width="40" height="13" as="geometry" />
        </mxCell>
        <mxCell id="3fQte9pRHBFsXC9MxjXT-22" value="0625&lt;br&gt;Data Class Discovery&lt;br&gt;" style="rounded=0;whiteSpace=wrap;html=1;align=left;verticalAlign=top;fillColor=#f5f5f5;fontColor=#333333;strokeColor=#666666;" parent="1" vertex="1">
          <mxGeometry x="220.5" y="418" width="140" height="80" as="geometry" />
        </mxCell>
        <mxCell id="3fQte9pRHBFsXC9MxjXT-29" value="" style="rounded=0;whiteSpace=wrap;html=1;align=left;fillColor=#ffcd28;strokeColor=#000000;gradientColor=#ffa500;" parent="1" vertex="1">
          <mxGeometry x="376.5" y="406" width="40" height="13" as="geometry" />
        </mxCell>
        <mxCell id="3fQte9pRHBFsXC9MxjXT-30" value="0630&lt;br&gt;Semantic Discovery&lt;br&gt;" style="rounded=0;whiteSpace=wrap;html=1;align=left;verticalAlign=top;fillColor=#f5f5f5;fontColor=#333333;strokeColor=#666666;" parent="1" vertex="1">
          <mxGeometry x="376.5" y="419" width="140" height="80" as="geometry" />
        </mxCell>
        <mxCell id="3fQte9pRHBFsXC9MxjXT-31" value="" style="rounded=0;whiteSpace=wrap;html=1;align=left;fillColor=#ffcd28;strokeColor=#000000;gradientColor=#ffa500;" parent="1" vertex="1">
          <mxGeometry x="532.5" y="406" width="40" height="13" as="geometry" />
        </mxCell>
        <mxCell id="3fQte9pRHBFsXC9MxjXT-32" value="0635&lt;br&gt;Classification Discovery&lt;br&gt;" style="rounded=0;whiteSpace=wrap;html=1;align=left;verticalAlign=top;fillColor=#f5f5f5;fontColor=#333333;strokeColor=#666666;" parent="1" vertex="1">
          <mxGeometry x="532.5" y="419" width="140" height="80" as="geometry" />
        </mxCell>
        <mxCell id="3fQte9pRHBFsXC9MxjXT-33" value="" style="rounded=0;whiteSpace=wrap;html=1;align=left;fillColor=#ffcd28;strokeColor=#000000;gradientColor=#ffa500;" parent="1" vertex="1">
          <mxGeometry x="61" y="532.5" width="40" height="13" as="geometry" />
        </mxCell>
        <mxCell id="3fQte9pRHBFsXC9MxjXT-34" value="0650&lt;br&gt;Relationship Discovery" style="rounded=0;whiteSpace=wrap;html=1;align=left;verticalAlign=top;fillColor=#f5f5f5;fontColor=#333333;strokeColor=#666666;" parent="1" vertex="1">
          <mxGeometry x="61" y="545.5" width="140" height="80" as="geometry" />
        </mxCell>
        <mxCell id="3fQte9pRHBFsXC9MxjXT-35" value="" style="rounded=0;whiteSpace=wrap;html=1;align=left;fillColor=#ffcd28;strokeColor=#000000;gradientColor=#ffa500;" parent="1" vertex="1">
          <mxGeometry x="220.5" y="532.5" width="40" height="13" as="geometry" />
        </mxCell>
        <mxCell id="3fQte9pRHBFsXC9MxjXT-36" value="0660&lt;br&gt;Resource &lt;br&gt;Measurements" style="rounded=0;whiteSpace=wrap;html=1;align=left;verticalAlign=top;fillColor=#f5f5f5;fontColor=#333333;strokeColor=#666666;" parent="1" vertex="1">
          <mxGeometry x="220.5" y="545.5" width="140" height="80" as="geometry" />
        </mxCell>
        <mxCell id="3fQte9pRHBFsXC9MxjXT-37" value="" style="rounded=0;whiteSpace=wrap;html=1;align=left;fillColor=#ffcd28;strokeColor=#000000;gradientColor=#ffa500;" parent="1" vertex="1">
          <mxGeometry x="61" y="659.5" width="40" height="13" as="geometry" />
        </mxCell>
        <mxCell id="3fQte9pRHBFsXC9MxjXT-38" value="0690&lt;br&gt;Request For Action&lt;br&gt;" style="rounded=0;whiteSpace=wrap;html=1;align=left;verticalAlign=top;fillColor=#f5f5f5;fontColor=#333333;strokeColor=#666666;" parent="1" vertex="1">
          <mxGeometry x="61" y="672.5" width="140" height="80" as="geometry" />
        </mxCell>
        <mxCell id="3fQte9pRHBFsXC9MxjXT-23" value="" style="rounded=0;whiteSpace=wrap;html=1;align=left;fillColor=#ffcd28;strokeColor=#000000;gradientColor=#ffa500;" parent="1" vertex="1">
          <mxGeometry x="700" y="406" width="40" height="13" as="geometry" />
        </mxCell>
        <mxCell id="3fQte9pRHBFsXC9MxjXT-24" value="0640&lt;br&gt;Quality Scores&lt;br&gt;" style="rounded=0;whiteSpace=wrap;html=1;align=left;verticalAlign=top;fillColor=#f5f5f5;fontColor=#333333;strokeColor=#666666;" parent="1" vertex="1">
          <mxGeometry x="700" y="419" width="140" height="80" as="geometry" />
        </mxCell>
        <mxCell id="qhe5Lm9k4JyNhTwtsEZm-1" value="" style="rounded=0;whiteSpace=wrap;html=1;align=left;fillColor=#ffcd28;strokeColor=#000000;gradientColor=#ffa500;" parent="1" vertex="1">
          <mxGeometry x="60" y="294" width="40" height="13" as="geometry" />
        </mxCell>
        <mxCell id="qhe5Lm9k4JyNhTwtsEZm-2" value="0615&lt;br&gt;Schema Extraction" style="rounded=0;whiteSpace=wrap;html=1;align=left;verticalAlign=top;fillColor=#f5f5f5;fontColor=#333333;strokeColor=#666666;" parent="1" vertex="1">
          <mxGeometry x="60" y="307" width="140" height="80" as="geometry" />
        </mxCell>
      </root>
    </mxGraphModel>
  </diagram>
  <diagram name="0603-Survey-Reports" id="PMQtC5GLAhQ_0c-HItpj">
    <mxGraphModel dx="1234" dy="827" grid="0" gridSize="10" guides="1" tooltips="1" connect="1" arrows="1" fold="1" page="1" pageScale="1" pageWidth="1169" pageHeight="827" math="0" shadow="0">
      <root>
        <mxCell id="3fQte9pRHBFsXC9MxjXT-0" />
        <mxCell id="3fQte9pRHBFsXC9MxjXT-1" parent="3fQte9pRHBFsXC9MxjXT-0" />
        <mxCell id="3fQte9pRHBFsXC9MxjXT-2" value="" style="rounded=0;whiteSpace=wrap;html=1;align=left;fillColor=#f0a30a;strokeColor=#000000;fontColor=#ffffff;" parent="3fQte9pRHBFsXC9MxjXT-1" vertex="1">
          <mxGeometry x="20" y="20" width="60" height="20" as="geometry" />
        </mxCell>
        <mxCell id="3fQte9pRHBFsXC9MxjXT-3" value="0603 - Survey Reports" style="rounded=0;whiteSpace=wrap;html=1;align=left;verticalAlign=top;fillColor=#f5f5f5;fontColor=#333333;strokeColor=#666666;" parent="3fQte9pRHBFsXC9MxjXT-1" vertex="1">
          <mxGeometry x="20" y="40" width="1060" height="590" as="geometry" />
        </mxCell>
        <mxCell id="VfXYZeYKJjAwFLqiV1ae-0" style="edgeStyle=orthogonalEdgeStyle;rounded=0;orthogonalLoop=1;jettySize=auto;html=1;exitX=0.5;exitY=0;exitDx=0;exitDy=0;entryX=0.5;entryY=1;entryDx=0;entryDy=0;endArrow=block;endFill=0;endSize=16;" parent="3fQte9pRHBFsXC9MxjXT-1" source="3fQte9pRHBFsXC9MxjXT-4" target="3fQte9pRHBFsXC9MxjXT-6" edge="1">
          <mxGeometry relative="1" as="geometry" />
        </mxCell>
        <mxCell id="3fQte9pRHBFsXC9MxjXT-4" value="«entity»&lt;br&gt;&lt;b style=&quot;border-color: var(--border-color);&quot;&gt;SurveyReport&lt;/b&gt;" style="html=1;strokeColor=#d79b00;align=center;fillColor=#ffcd28;gradientColor=#ffa500;" parent="3fQte9pRHBFsXC9MxjXT-1" vertex="1">
          <mxGeometry x="423" y="336.5" width="260" height="50" as="geometry" />
        </mxCell>
        <mxCell id="3fQte9pRHBFsXC9MxjXT-5" value="&lt;span style=&quot;color: rgb(0, 0, 0); font-family: Helvetica; font-size: 12px; font-style: normal; font-variant-ligatures: normal; font-variant-caps: normal; font-weight: 400; letter-spacing: normal; orphans: 2; text-align: left; text-indent: 0px; text-transform: none; widows: 2; word-spacing: 0px; -webkit-text-stroke-width: 0px; background-color: rgb(251, 251, 251); text-decoration-thickness: initial; text-decoration-style: initial; text-decoration-color: initial; float: none; display: inline !important;&quot;&gt;analysisParameters : map&amp;lt;string, string&amp;gt;&lt;/span&gt;&lt;br style=&quot;border-color: var(--border-color); color: rgb(0, 0, 0); font-family: Helvetica; font-size: 12px; font-style: normal; font-variant-ligatures: normal; font-variant-caps: normal; font-weight: 400; letter-spacing: normal; orphans: 2; text-align: left; text-indent: 0px; text-transform: none; widows: 2; word-spacing: 0px; -webkit-text-stroke-width: 0px; text-decoration-thickness: initial; text-decoration-style: initial; text-decoration-color: initial;&quot;&gt;&lt;span style=&quot;color: rgb(0, 0, 0); font-family: Helvetica; font-size: 12px; font-style: normal; font-variant-ligatures: normal; font-variant-caps: normal; font-weight: 400; letter-spacing: normal; orphans: 2; text-align: left; text-indent: 0px; text-transform: none; widows: 2; word-spacing: 0px; -webkit-text-stroke-width: 0px; background-color: rgb(251, 251, 251); text-decoration-thickness: initial; text-decoration-style: initial; text-decoration-color: initial; float: none; display: inline !important;&quot;&gt;analysisStep : string&lt;/span&gt;&lt;span style=&quot;color: rgb(0, 0, 0); font-family: Helvetica; font-size: 12px; font-style: normal; font-variant-ligatures: normal; font-variant-caps: normal; font-weight: 400; letter-spacing: normal; orphans: 2; text-align: left; text-indent: 0px; text-transform: none; widows: 2; word-spacing: 0px; -webkit-text-stroke-width: 0px; background-color: rgb(251, 251, 251); text-decoration-thickness: initial; text-decoration-style: initial; text-decoration-color: initial; float: none; display: inline !important;&quot;&gt;&lt;br&gt;&lt;/span&gt;" style="rounded=0;whiteSpace=wrap;html=1;strokeColor=#666666;align=left;fillColor=#f5f5f5;fontColor=#333333;" parent="3fQte9pRHBFsXC9MxjXT-1" vertex="1">
          <mxGeometry x="423" y="386.5" width="260" height="61.5" as="geometry" />
        </mxCell>
        <mxCell id="3fQte9pRHBFsXC9MxjXT-6" value="«entity»&lt;br&gt;&lt;b&gt;Report&lt;/b&gt;" style="html=1;strokeColor=#6c8ebf;align=center;fillColor=#dae8fc;gradientColor=#7ea6e0;" parent="3fQte9pRHBFsXC9MxjXT-1" vertex="1">
          <mxGeometry x="473" y="230" width="160" height="50" as="geometry" />
        </mxCell>
      </root>
    </mxGraphModel>
  </diagram>
  <diagram name="0610-Annotations" id="B93cejBKThY-TTdXCMpq">
    <mxGraphModel dx="2066" dy="1157" grid="0" gridSize="10" guides="1" tooltips="1" connect="1" arrows="1" fold="1" page="1" pageScale="1" pageWidth="1169" pageHeight="827" math="0" shadow="0">
      <root>
        <mxCell id="3fQte9pRHBFsXC9MxjXT-0" />
        <mxCell id="3fQte9pRHBFsXC9MxjXT-1" parent="3fQte9pRHBFsXC9MxjXT-0" />
        <mxCell id="3fQte9pRHBFsXC9MxjXT-2" value="" style="rounded=0;whiteSpace=wrap;html=1;align=left;fillColor=#f0a30a;strokeColor=#000000;fontColor=#ffffff;" parent="3fQte9pRHBFsXC9MxjXT-1" vertex="1">
          <mxGeometry x="20" y="20" width="60" height="20" as="geometry" />
        </mxCell>
        <mxCell id="3fQte9pRHBFsXC9MxjXT-3" value="0610 - Annotations" style="rounded=0;whiteSpace=wrap;html=1;align=left;verticalAlign=top;fillColor=#f5f5f5;fontColor=#333333;strokeColor=#666666;" parent="3fQte9pRHBFsXC9MxjXT-1" vertex="1">
          <mxGeometry x="20" y="40" width="1060" height="770" as="geometry" />
        </mxCell>
        <mxCell id="3fQte9pRHBFsXC9MxjXT-4" value="«entity»&lt;br&gt;&lt;b&gt;Annotation&lt;/b&gt;" style="html=1;strokeColor=#d79b00;align=center;fillColor=#ffcd28;gradientColor=#ffa500;" parent="3fQte9pRHBFsXC9MxjXT-1" vertex="1">
          <mxGeometry x="541" y="248" width="240" height="50" as="geometry" />
        </mxCell>
        <mxCell id="3fQte9pRHBFsXC9MxjXT-5" value="annotationType : string&lt;br&gt;summary : string&lt;br&gt;confidenceLevel : int&lt;br&gt;expression : string&lt;br&gt;explanation : string&lt;br&gt;analysisStep : string&lt;br&gt;jsonProperties : string&lt;br&gt;additionalProperties : map&amp;lt;string, string&amp;gt;" style="rounded=0;whiteSpace=wrap;html=1;strokeColor=#666666;align=left;fillColor=#f5f5f5;fontColor=#333333;" parent="3fQte9pRHBFsXC9MxjXT-1" vertex="1">
          <mxGeometry x="541" y="298" width="240" height="137" as="geometry" />
        </mxCell>
        <mxCell id="3fQte9pRHBFsXC9MxjXT-17" value="*" style="text;html=1;strokeColor=none;fillColor=none;align=center;verticalAlign=middle;whiteSpace=wrap;rounded=0;" parent="3fQte9pRHBFsXC9MxjXT-1" vertex="1">
          <mxGeometry x="501" y="253" width="40" height="20" as="geometry" />
        </mxCell>
        <mxCell id="3fQte9pRHBFsXC9MxjXT-20" value="0..1" style="text;html=1;strokeColor=none;fillColor=none;align=center;verticalAlign=middle;whiteSpace=wrap;rounded=0;" parent="3fQte9pRHBFsXC9MxjXT-1" vertex="1">
          <mxGeometry x="281" y="278" width="40" height="20" as="geometry" />
        </mxCell>
        <mxCell id="3fQte9pRHBFsXC9MxjXT-23" value="fromSurveyReport" style="text;html=1;strokeColor=none;fillColor=none;align=center;verticalAlign=middle;whiteSpace=wrap;rounded=0;" parent="3fQte9pRHBFsXC9MxjXT-1" vertex="1">
          <mxGeometry x="272" y="253" width="124" height="20" as="geometry" />
        </mxCell>
        <mxCell id="3fQte9pRHBFsXC9MxjXT-24" value="reportedAnnotations" style="text;html=1;strokeColor=none;fillColor=none;align=center;verticalAlign=middle;whiteSpace=wrap;rounded=0;" parent="3fQte9pRHBFsXC9MxjXT-1" vertex="1">
          <mxGeometry x="413" y="278" width="128" height="20" as="geometry" />
        </mxCell>
        <mxCell id="3fQte9pRHBFsXC9MxjXT-27" value="«entity»&lt;br&gt;&lt;b&gt;SurveyReport&lt;/b&gt;" style="html=1;strokeColor=#d79b00;align=center;fillColor=#ffcd28;gradientColor=#ffa500;" parent="3fQte9pRHBFsXC9MxjXT-1" vertex="1">
          <mxGeometry x="61" y="248" width="217" height="50" as="geometry" />
        </mxCell>
        <mxCell id="3fQte9pRHBFsXC9MxjXT-8" value="«relationship»&lt;br&gt;&lt;b&gt;ReportedAnnotation&lt;/b&gt;" style="html=1;strokeColor=#d79b00;align=center;fillColor=#ffcd28;gradientColor=#ffa500;" parent="3fQte9pRHBFsXC9MxjXT-1" vertex="1">
          <mxGeometry x="306" y="122" width="206" height="50" as="geometry" />
        </mxCell>
        <mxCell id="3fQte9pRHBFsXC9MxjXT-9" value="" style="endArrow=none;dashed=1;html=1;entryX=0.5;entryY=1;entryDx=0;entryDy=0;" parent="3fQte9pRHBFsXC9MxjXT-1" target="3fQte9pRHBFsXC9MxjXT-10" edge="1">
          <mxGeometry width="50" height="50" relative="1" as="geometry">
            <mxPoint x="409" y="274" as="sourcePoint" />
            <mxPoint x="409" y="171" as="targetPoint" />
          </mxGeometry>
        </mxCell>
        <mxCell id="3fQte9pRHBFsXC9MxjXT-10" value="" style="rounded=0;whiteSpace=wrap;html=1;strokeColor=#666666;align=center;fillColor=#f5f5f5;fontColor=#333333;" parent="3fQte9pRHBFsXC9MxjXT-1" vertex="1">
          <mxGeometry x="306" y="172" width="206" height="31" as="geometry" />
        </mxCell>
        <mxCell id="3fQte9pRHBFsXC9MxjXT-13" value="" style="endArrow=none;html=1;entryX=1;entryY=0.5;exitX=1;exitY=0.75;startArrow=oval;startFill=1;rounded=0;" parent="3fQte9pRHBFsXC9MxjXT-1" source="3fQte9pRHBFsXC9MxjXT-5" target="3fQte9pRHBFsXC9MxjXT-4" edge="1">
          <mxGeometry width="50" height="50" relative="1" as="geometry">
            <mxPoint x="83" y="864" as="sourcePoint" />
            <mxPoint x="133" y="814" as="targetPoint" />
            <Array as="points">
              <mxPoint x="811" y="401" />
              <mxPoint x="811" y="273" />
            </Array>
          </mxGeometry>
        </mxCell>
        <mxCell id="3fQte9pRHBFsXC9MxjXT-28" value="previousAnnotations" style="text;html=1;strokeColor=none;fillColor=none;align=center;verticalAlign=middle;whiteSpace=wrap;rounded=0;" parent="3fQte9pRHBFsXC9MxjXT-1" vertex="1">
          <mxGeometry x="781" y="253" width="123" height="20" as="geometry" />
        </mxCell>
        <mxCell id="3fQte9pRHBFsXC9MxjXT-30" value="*" style="text;html=1;strokeColor=none;fillColor=none;align=center;verticalAlign=middle;whiteSpace=wrap;rounded=0;" parent="3fQte9pRHBFsXC9MxjXT-1" vertex="1">
          <mxGeometry x="774" y="278" width="40" height="20" as="geometry" />
        </mxCell>
        <mxCell id="3fQte9pRHBFsXC9MxjXT-31" value="*" style="text;html=1;strokeColor=none;fillColor=none;align=center;verticalAlign=middle;whiteSpace=wrap;rounded=0;" parent="3fQte9pRHBFsXC9MxjXT-1" vertex="1">
          <mxGeometry x="774" y="381" width="40" height="20" as="geometry" />
        </mxCell>
        <mxCell id="3fQte9pRHBFsXC9MxjXT-32" value="«relationship»&lt;br&gt;&lt;b&gt;AnnotationExtension&lt;/b&gt;" style="html=1;strokeColor=#d79b00;align=center;fillColor=#ffcd28;gradientColor=#ffa500;" parent="3fQte9pRHBFsXC9MxjXT-1" vertex="1">
          <mxGeometry x="841" y="308" width="206" height="50" as="geometry" />
        </mxCell>
        <mxCell id="3fQte9pRHBFsXC9MxjXT-33" value="" style="endArrow=none;dashed=1;html=1;entryX=0;entryY=0.5;" parent="3fQte9pRHBFsXC9MxjXT-1" target="3fQte9pRHBFsXC9MxjXT-32" edge="1">
          <mxGeometry width="50" height="50" relative="1" as="geometry">
            <mxPoint x="813" y="333" as="sourcePoint" />
            <mxPoint x="1703" y="305" as="targetPoint" />
          </mxGeometry>
        </mxCell>
        <mxCell id="3fQte9pRHBFsXC9MxjXT-34" value="" style="rounded=0;whiteSpace=wrap;html=1;strokeColor=#666666;align=center;fillColor=#f5f5f5;fontColor=#333333;" parent="3fQte9pRHBFsXC9MxjXT-1" vertex="1">
          <mxGeometry x="841" y="358" width="206" height="31" as="geometry" />
        </mxCell>
        <mxCell id="khFXJhSDqjQeGoekeJ10-0" value="annotationExtensions" style="text;html=1;strokeColor=none;fillColor=none;align=center;verticalAlign=middle;whiteSpace=wrap;rounded=0;" parent="3fQte9pRHBFsXC9MxjXT-1" vertex="1">
          <mxGeometry x="781" y="412.5" width="123" height="20" as="geometry" />
        </mxCell>
        <mxCell id="rONUnObFOf8PwcdJrpwX-0" style="edgeStyle=orthogonalEdgeStyle;rounded=0;orthogonalLoop=1;jettySize=auto;html=1;endArrow=block;endFill=0;endSize=16;" parent="3fQte9pRHBFsXC9MxjXT-1" source="3fQte9pRHBFsXC9MxjXT-4" target="rONUnObFOf8PwcdJrpwX-1" edge="1">
          <mxGeometry relative="1" as="geometry">
            <mxPoint x="771" y="239" as="sourcePoint" />
          </mxGeometry>
        </mxCell>
        <mxCell id="rONUnObFOf8PwcdJrpwX-1" value="«entity»&lt;br&gt;&lt;b&gt;OpenMetadataRoot&lt;/b&gt;" style="html=1;strokeColor=#d6b656;align=center;fillColor=#fff2cc;gradientColor=#ffd966;" parent="3fQte9pRHBFsXC9MxjXT-1" vertex="1">
          <mxGeometry x="541" y="143" width="240" height="50" as="geometry" />
        </mxCell>
        <mxCell id="3fQte9pRHBFsXC9MxjXT-25" value="" style="endArrow=oval;html=1;entryX=1;entryY=1;exitX=1;exitY=0.5;endFill=1;exitDx=0;exitDy=0;entryDx=0;entryDy=0;" parent="3fQte9pRHBFsXC9MxjXT-1" source="3fQte9pRHBFsXC9MxjXT-27" target="3fQte9pRHBFsXC9MxjXT-17" edge="1">
          <mxGeometry width="50" height="50" relative="1" as="geometry">
            <mxPoint x="1103" y="229.5" as="sourcePoint" />
            <mxPoint x="1103" y="92.5" as="targetPoint" />
          </mxGeometry>
        </mxCell>
        <mxCell id="wPpYq1lQKiaJjS4SpHH7-0" value="«entity»&lt;br&gt;&lt;b&gt;OpenMetadataRoot&lt;/b&gt;" style="html=1;strokeColor=#d6b656;align=center;fillColor=#fff2cc;gradientColor=#ffd966;" parent="3fQte9pRHBFsXC9MxjXT-1" vertex="1">
          <mxGeometry x="553" y="596" width="215" height="50" as="geometry" />
        </mxCell>
        <mxCell id="wPpYq1lQKiaJjS4SpHH7-2" value="«relationship»&lt;br&gt;&lt;b&gt;AssociatedAnnotation&lt;/b&gt;" style="html=1;strokeColor=#d79b00;align=center;fillColor=#ffcd28;gradientColor=#ffa500;" parent="3fQte9pRHBFsXC9MxjXT-1" vertex="1">
          <mxGeometry x="758" y="471" width="206" height="50" as="geometry" />
        </mxCell>
        <mxCell id="wPpYq1lQKiaJjS4SpHH7-3" value="" style="endArrow=none;dashed=1;html=1;entryX=0;entryY=0.5;" parent="3fQte9pRHBFsXC9MxjXT-1" target="wPpYq1lQKiaJjS4SpHH7-2" edge="1">
          <mxGeometry width="50" height="50" relative="1" as="geometry">
            <mxPoint x="662" y="496.5" as="sourcePoint" />
            <mxPoint x="1552" y="468.5" as="targetPoint" />
          </mxGeometry>
        </mxCell>
        <mxCell id="wPpYq1lQKiaJjS4SpHH7-4" value="" style="rounded=0;whiteSpace=wrap;html=1;strokeColor=#666666;align=center;fillColor=#f5f5f5;fontColor=#333333;" parent="3fQte9pRHBFsXC9MxjXT-1" vertex="1">
          <mxGeometry x="758" y="521" width="206" height="31" as="geometry" />
        </mxCell>
        <mxCell id="wPpYq1lQKiaJjS4SpHH7-1" style="edgeStyle=orthogonalEdgeStyle;rounded=0;orthogonalLoop=1;jettySize=auto;html=1;exitX=0.5;exitY=1;exitDx=0;exitDy=0;endArrow=none;endFill=0;startArrow=oval;startFill=1;" parent="3fQte9pRHBFsXC9MxjXT-1" source="3fQte9pRHBFsXC9MxjXT-5" target="wPpYq1lQKiaJjS4SpHH7-0" edge="1">
          <mxGeometry relative="1" as="geometry" />
        </mxCell>
        <mxCell id="wPpYq1lQKiaJjS4SpHH7-5" value="*" style="text;html=1;align=center;verticalAlign=middle;resizable=0;points=[];autosize=1;strokeColor=none;fillColor=none;" parent="3fQte9pRHBFsXC9MxjXT-1" vertex="1">
          <mxGeometry x="634" y="570" width="23" height="26" as="geometry" />
        </mxCell>
        <mxCell id="wPpYq1lQKiaJjS4SpHH7-6" value="*" style="text;html=1;align=center;verticalAlign=middle;resizable=0;points=[];autosize=1;strokeColor=none;fillColor=none;" parent="3fQte9pRHBFsXC9MxjXT-1" vertex="1">
          <mxGeometry x="634" y="437" width="23" height="26" as="geometry" />
        </mxCell>
        <mxCell id="wPpYq1lQKiaJjS4SpHH7-7" value="associatedAnnotations" style="text;html=1;align=center;verticalAlign=middle;resizable=0;points=[];autosize=1;strokeColor=none;fillColor=none;" parent="3fQte9pRHBFsXC9MxjXT-1" vertex="1">
          <mxGeometry x="666" y="435" width="139" height="26" as="geometry" />
        </mxCell>
        <mxCell id="wPpYq1lQKiaJjS4SpHH7-8" value="annotationSubjects" style="text;html=1;align=center;verticalAlign=middle;resizable=0;points=[];autosize=1;strokeColor=none;fillColor=none;" parent="3fQte9pRHBFsXC9MxjXT-1" vertex="1">
          <mxGeometry x="660" y="570" width="120" height="26" as="geometry" />
        </mxCell>
        <mxCell id="xd3Vk_Hw0hAGJ55VTxtE-0" value="«entity»&lt;br&gt;&lt;b&gt;DataFieldAnnotation&lt;/b&gt;" style="html=1;strokeColor=#d79b00;align=center;fillColor=#ffcd28;gradientColor=#ffa500;" parent="3fQte9pRHBFsXC9MxjXT-1" vertex="1">
          <mxGeometry x="118.5" y="577.5" width="212.5" height="50" as="geometry" />
        </mxCell>
        <mxCell id="xd3Vk_Hw0hAGJ55VTxtE-1" value="" style="rounded=0;whiteSpace=wrap;html=1;strokeColor=#666666;align=left;fillColor=#f5f5f5;fontColor=#333333;" parent="3fQte9pRHBFsXC9MxjXT-1" vertex="1">
          <mxGeometry x="118" y="627.5" width="214" height="26.5" as="geometry" />
        </mxCell>
        <mxCell id="xd3Vk_Hw0hAGJ55VTxtE-3" value="«entity»&lt;br&gt;&lt;b&gt;Annotation&lt;/b&gt;" style="html=1;strokeColor=#d79b00;align=center;fillColor=#ffcd28;gradientColor=#ffa500;" parent="3fQte9pRHBFsXC9MxjXT-1" vertex="1">
          <mxGeometry x="121.5" y="463" width="207.5" height="50" as="geometry" />
        </mxCell>
        <mxCell id="07tJ4YSjPFyJwIj_K7Pb-0" style="edgeStyle=orthogonalEdgeStyle;rounded=0;orthogonalLoop=1;jettySize=auto;html=1;endArrow=block;endFill=0;endSize=16;entryX=0.5;entryY=1;entryDx=0;entryDy=0;exitX=0.5;exitY=0;exitDx=0;exitDy=0;" parent="3fQte9pRHBFsXC9MxjXT-1" source="xd3Vk_Hw0hAGJ55VTxtE-0" target="xd3Vk_Hw0hAGJ55VTxtE-3" edge="1">
          <mxGeometry relative="1" as="geometry">
            <mxPoint x="638.5" y="158" as="sourcePoint" />
            <mxPoint x="638.5" y="103" as="targetPoint" />
          </mxGeometry>
        </mxCell>
      </root>
    </mxGraphModel>
  </diagram>
  <diagram name="0612-Annotation-Reviews" id="3_5sg-Z3IrCquTYNV99S">
    <mxGraphModel dx="2066" dy="1157" grid="0" gridSize="10" guides="1" tooltips="1" connect="1" arrows="1" fold="1" page="1" pageScale="1" pageWidth="1169" pageHeight="827" math="0" shadow="0">
      <root>
        <mxCell id="3fQte9pRHBFsXC9MxjXT-0" />
        <mxCell id="3fQte9pRHBFsXC9MxjXT-1" parent="3fQte9pRHBFsXC9MxjXT-0" />
        <mxCell id="3fQte9pRHBFsXC9MxjXT-2" value="" style="rounded=0;whiteSpace=wrap;html=1;align=left;fillColor=#f0a30a;strokeColor=#000000;fontColor=#ffffff;" parent="3fQte9pRHBFsXC9MxjXT-1" vertex="1">
          <mxGeometry x="20" y="20" width="60" height="20" as="geometry" />
        </mxCell>
        <mxCell id="3fQte9pRHBFsXC9MxjXT-3" value="0612 - Annotation Reviews" style="rounded=0;whiteSpace=wrap;html=1;align=left;verticalAlign=top;fillColor=#f5f5f5;fontColor=#333333;strokeColor=#666666;" parent="3fQte9pRHBFsXC9MxjXT-1" vertex="1">
          <mxGeometry x="20" y="40" width="1060" height="470" as="geometry" />
        </mxCell>
        <mxCell id="X9jNspjHYnvltATcbpwj-1" style="edgeStyle=orthogonalEdgeStyle;rounded=0;orthogonalLoop=1;jettySize=auto;html=1;endArrow=block;endFill=0;endSize=16;" parent="3fQte9pRHBFsXC9MxjXT-1" source="3fQte9pRHBFsXC9MxjXT-4" edge="1">
          <mxGeometry relative="1" as="geometry">
            <mxPoint x="374" y="215" as="targetPoint" />
          </mxGeometry>
        </mxCell>
        <mxCell id="3fQte9pRHBFsXC9MxjXT-4" value="«entity»&lt;br&gt;&lt;b&gt;AnnotationReview&lt;/b&gt;" style="html=1;strokeColor=#d79b00;align=center;fillColor=#ffcd28;gradientColor=#ffa500;" parent="3fQte9pRHBFsXC9MxjXT-1" vertex="1">
          <mxGeometry x="254" y="302" width="240" height="50" as="geometry" />
        </mxCell>
        <mxCell id="3fQte9pRHBFsXC9MxjXT-10" value="annotationStatus : AnnotationStatus" style="rounded=0;whiteSpace=wrap;html=1;strokeColor=#666666;align=center;fillColor=#f5f5f5;fontColor=#333333;" parent="3fQte9pRHBFsXC9MxjXT-1" vertex="1">
          <mxGeometry x="254" y="352" width="239" height="31" as="geometry" />
        </mxCell>
        <mxCell id="tRoHS6g_8oDaDwOuYEJ3-0" value="«enumeration»&lt;br&gt;&lt;b&gt;AnnotationStatus&lt;/b&gt;" style="html=1;strokeColor=#d79b00;align=center;fillColor=#ffcd28;gradientColor=#ffa500;" parent="3fQte9pRHBFsXC9MxjXT-1" vertex="1">
          <mxGeometry x="692" y="179" width="182" height="53" as="geometry" />
        </mxCell>
        <mxCell id="tRoHS6g_8oDaDwOuYEJ3-1" value="NEW = 0&lt;br&gt;REVIEWED = 1&lt;br&gt;APPROVED = 2&lt;br&gt;ACTIONED = 3&lt;br&gt;INVALID = 4&lt;br&gt;IGNORE = 5&lt;br&gt;OTHER = 98&lt;br&gt;UNKNOWN = 99" style="rounded=0;whiteSpace=wrap;html=1;strokeColor=#666666;align=left;fillColor=#f5f5f5;fontColor=#333333;" parent="3fQte9pRHBFsXC9MxjXT-1" vertex="1">
          <mxGeometry x="692" y="232" width="181" height="140" as="geometry" />
        </mxCell>
        <mxCell id="zlmCdDoO5QaulDlshHgb-0" value="«entity»&lt;br&gt;&lt;b&gt;Review&lt;/b&gt;" style="html=1;strokeColor=#b85450;align=center;fillColor=#f8cecc;gradientColor=#FF0080;" vertex="1" parent="3fQte9pRHBFsXC9MxjXT-1">
          <mxGeometry x="293.5" y="167" width="161" height="50" as="geometry" />
        </mxCell>
      </root>
    </mxGraphModel>
  </diagram>
  <diagram name="0615-Schema-Extraction" id="qfLNVuc7-3Gx_nqUpI1-">
    <mxGraphModel dx="1234" dy="836" grid="0" gridSize="10" guides="1" tooltips="1" connect="1" arrows="1" fold="1" page="1" pageScale="1" pageWidth="1169" pageHeight="827" math="0" shadow="0">
      <root>
        <mxCell id="3fQte9pRHBFsXC9MxjXT-0" />
        <mxCell id="3fQte9pRHBFsXC9MxjXT-1" parent="3fQte9pRHBFsXC9MxjXT-0" />
        <mxCell id="3fQte9pRHBFsXC9MxjXT-2" value="" style="rounded=0;whiteSpace=wrap;html=1;align=left;fillColor=#f0a30a;strokeColor=#000000;fontColor=#ffffff;" parent="3fQte9pRHBFsXC9MxjXT-1" vertex="1">
          <mxGeometry x="20" y="20" width="60" height="20" as="geometry" />
        </mxCell>
        <mxCell id="3fQte9pRHBFsXC9MxjXT-3" value="0615 - Schema Extraction" style="rounded=0;whiteSpace=wrap;html=1;align=left;verticalAlign=top;fillColor=#f5f5f5;fontColor=#333333;strokeColor=#666666;" parent="3fQte9pRHBFsXC9MxjXT-1" vertex="1">
          <mxGeometry x="20" y="40" width="1060" height="550" as="geometry" />
        </mxCell>
        <mxCell id="3fQte9pRHBFsXC9MxjXT-4" value="«entity»&lt;br&gt;&lt;b&gt;SchemaAnalysisAnnotation&lt;/b&gt;" style="html=1;strokeColor=#d79b00;align=center;fillColor=#ffcd28;gradientColor=#ffa500;" parent="3fQte9pRHBFsXC9MxjXT-1" vertex="1">
          <mxGeometry x="158" y="247.5" width="203" height="50" as="geometry" />
        </mxCell>
        <mxCell id="3fQte9pRHBFsXC9MxjXT-5" value="schemaName : string&lt;br&gt;schemaType : string&lt;br&gt;" style="rounded=0;whiteSpace=wrap;html=1;strokeColor=#666666;align=left;fillColor=#f5f5f5;fontColor=#333333;" parent="3fQte9pRHBFsXC9MxjXT-1" vertex="1">
          <mxGeometry x="158" y="297.5" width="203" height="55.5" as="geometry" />
        </mxCell>
        <mxCell id="3fQte9pRHBFsXC9MxjXT-7" value="«entity»&lt;br&gt;&lt;b&gt;Annotation&lt;/b&gt;" style="html=1;strokeColor=#d79b00;align=center;fillColor=#ffcd28;gradientColor=#ffa500;" parent="3fQte9pRHBFsXC9MxjXT-1" vertex="1">
          <mxGeometry x="171.75" y="126" width="175.5" height="50" as="geometry" />
        </mxCell>
        <mxCell id="KzaNADxq_HkuWJovkWK7-0" style="edgeStyle=orthogonalEdgeStyle;rounded=0;orthogonalLoop=1;jettySize=auto;html=1;endArrow=block;endFill=0;endSize=16;entryX=0.5;entryY=1;entryDx=0;entryDy=0;exitX=0.5;exitY=0;exitDx=0;exitDy=0;" parent="3fQte9pRHBFsXC9MxjXT-1" source="3fQte9pRHBFsXC9MxjXT-4" target="3fQte9pRHBFsXC9MxjXT-7" edge="1">
          <mxGeometry relative="1" as="geometry">
            <mxPoint x="753.25" y="257" as="sourcePoint" />
            <mxPoint x="753.25" y="185" as="targetPoint" />
          </mxGeometry>
        </mxCell>
        <mxCell id="MqYL7KYox6_za7hlcy3G-0" value="«entity»&lt;br&gt;&lt;b&gt;SchemaType&lt;/b&gt;" style="html=1;strokeColor=#996185;align=center;fillColor=#e6d0de;gradientColor=#d5739d;" parent="3fQte9pRHBFsXC9MxjXT-1" vertex="1">
          <mxGeometry x="699" y="260" width="160" height="50" as="geometry" />
        </mxCell>
        <mxCell id="MqYL7KYox6_za7hlcy3G-1" value="discoveringAnnotations" style="text;html=1;strokeColor=none;fillColor=none;align=center;verticalAlign=middle;whiteSpace=wrap;rounded=0;" parent="3fQte9pRHBFsXC9MxjXT-1" vertex="1">
          <mxGeometry x="361" y="288" width="126" height="20" as="geometry" />
        </mxCell>
        <mxCell id="MqYL7KYox6_za7hlcy3G-2" value="*" style="text;html=1;strokeColor=none;fillColor=none;align=center;verticalAlign=middle;whiteSpace=wrap;rounded=0;" parent="3fQte9pRHBFsXC9MxjXT-1" vertex="1">
          <mxGeometry x="366" y="260" width="26" height="18" as="geometry" />
        </mxCell>
        <mxCell id="MqYL7KYox6_za7hlcy3G-3" value="0..1" style="text;html=1;strokeColor=none;fillColor=none;align=center;verticalAlign=middle;whiteSpace=wrap;rounded=0;" parent="3fQte9pRHBFsXC9MxjXT-1" vertex="1">
          <mxGeometry x="654" y="259" width="40" height="20" as="geometry" />
        </mxCell>
        <mxCell id="MqYL7KYox6_za7hlcy3G-4" value="«relationship»&lt;br&gt;&lt;b&gt;DiscoveredSchemaType&lt;/b&gt;" style="html=1;strokeColor=#d79b00;align=center;fillColor=#ffcd28;gradientColor=#ffa500;" parent="3fQte9pRHBFsXC9MxjXT-1" vertex="1">
          <mxGeometry x="621" y="387" width="206" height="53" as="geometry" />
        </mxCell>
        <mxCell id="MqYL7KYox6_za7hlcy3G-5" value="" style="endArrow=none;dashed=1;html=1;" parent="3fQte9pRHBFsXC9MxjXT-1" target="MqYL7KYox6_za7hlcy3G-4" edge="1">
          <mxGeometry width="50" height="50" relative="1" as="geometry">
            <mxPoint x="536" y="287" as="sourcePoint" />
            <mxPoint x="644" y="592" as="targetPoint" />
            <Array as="points">
              <mxPoint x="534" y="411" />
            </Array>
          </mxGeometry>
        </mxCell>
        <mxCell id="MqYL7KYox6_za7hlcy3G-6" value="" style="rounded=0;whiteSpace=wrap;html=1;align=left;fillColor=#f5f5f5;fontColor=#333333;strokeColor=#666666;" parent="3fQte9pRHBFsXC9MxjXT-1" vertex="1">
          <mxGeometry x="621" y="438" width="206" height="31" as="geometry" />
        </mxCell>
        <mxCell id="MqYL7KYox6_za7hlcy3G-7" value="discoveredSchema" style="text;html=1;strokeColor=none;fillColor=none;align=center;verticalAlign=middle;whiteSpace=wrap;rounded=0;" parent="3fQte9pRHBFsXC9MxjXT-1" vertex="1">
          <mxGeometry x="593" y="290" width="95.75" height="20" as="geometry" />
        </mxCell>
        <mxCell id="MqYL7KYox6_za7hlcy3G-8" style="edgeStyle=orthogonalEdgeStyle;rounded=0;html=1;entryX=1;entryY=0.75;endArrow=none;endFill=0;jettySize=auto;orthogonalLoop=1;entryDx=0;entryDy=0;startArrow=oval;startFill=1;" parent="3fQte9pRHBFsXC9MxjXT-1" source="MqYL7KYox6_za7hlcy3G-0" target="3fQte9pRHBFsXC9MxjXT-4" edge="1">
          <mxGeometry relative="1" as="geometry">
            <mxPoint x="668" y="551" as="targetPoint" />
          </mxGeometry>
        </mxCell>
      </root>
    </mxGraphModel>
  </diagram>
  <diagram name="0620-Resource-Profiling" id="JT6iq98iTEs5zHDlyrKp">
    <mxGraphModel dx="1234" dy="836" grid="0" gridSize="10" guides="1" tooltips="1" connect="1" arrows="1" fold="1" page="1" pageScale="1" pageWidth="1169" pageHeight="827" math="0" shadow="0">
      <root>
        <mxCell id="3fQte9pRHBFsXC9MxjXT-0" />
        <mxCell id="3fQte9pRHBFsXC9MxjXT-1" parent="3fQte9pRHBFsXC9MxjXT-0" />
        <mxCell id="3fQte9pRHBFsXC9MxjXT-2" value="" style="rounded=0;whiteSpace=wrap;html=1;align=left;fillColor=#f0a30a;strokeColor=#000000;fontColor=#ffffff;" parent="3fQte9pRHBFsXC9MxjXT-1" vertex="1">
          <mxGeometry x="20" y="20" width="60" height="20" as="geometry" />
        </mxCell>
        <mxCell id="3fQte9pRHBFsXC9MxjXT-3" value="0620 - Resource Profiling" style="rounded=0;whiteSpace=wrap;html=1;align=left;verticalAlign=top;fillColor=#f5f5f5;fontColor=#333333;strokeColor=#666666;" parent="3fQte9pRHBFsXC9MxjXT-1" vertex="1">
          <mxGeometry x="20" y="40" width="1060" height="770" as="geometry" />
        </mxCell>
        <mxCell id="5Xt5Fv4t-drIhkhnObpn-5" style="edgeStyle=orthogonalEdgeStyle;rounded=0;orthogonalLoop=1;jettySize=auto;html=1;endArrow=block;endFill=0;endSize=19;" parent="3fQte9pRHBFsXC9MxjXT-1" source="3fQte9pRHBFsXC9MxjXT-4" target="3fQte9pRHBFsXC9MxjXT-7" edge="1">
          <mxGeometry relative="1" as="geometry" />
        </mxCell>
        <mxCell id="3fQte9pRHBFsXC9MxjXT-4" value="«entity»&lt;br&gt;&lt;b&gt;ResourceProfileAnnotation&lt;/b&gt;" style="html=1;strokeColor=#d79b00;align=center;fillColor=#ffcd28;gradientColor=#ffa500;" parent="3fQte9pRHBFsXC9MxjXT-1" vertex="1">
          <mxGeometry x="68" y="274" width="222" height="50" as="geometry" />
        </mxCell>
        <mxCell id="3fQte9pRHBFsXC9MxjXT-5" value="profilePropertyNames : array&amp;lt;string&amp;gt;&lt;div&gt;length : int&lt;br&gt;inferredDataType : string&lt;br&gt;inferredFormat : string&lt;br&gt;inferredLength : int&lt;br&gt;inferredPrecision : int&lt;br&gt;inferredScale : int&lt;div&gt;profileStartDate : date&lt;/div&gt;&lt;div&gt;profileEndDate : date&lt;br&gt;profileProperties : map&amp;lt;string, string&amp;gt;&lt;br&gt;profileFlags : map&amp;lt;string, boolean&amp;gt;&lt;/div&gt;&lt;div&gt;profileDates : map&amp;lt;string, date&amp;gt;&lt;br&gt;profileCounts : map&amp;lt;string, long&amp;gt;&lt;br&gt;profileDoubles : map&amp;lt;string, double&amp;gt;&lt;br&gt;valueList : array&amp;lt;string&amp;gt;&lt;br&gt;valueCount : map&amp;lt;string, int&amp;gt;&lt;br&gt;valueRangeFrom : string&lt;br&gt;valueRangeTo : string&lt;br&gt;averageValue : string&lt;/div&gt;&lt;/div&gt;" style="rounded=0;whiteSpace=wrap;html=1;strokeColor=#666666;align=left;fillColor=#f5f5f5;fontColor=#333333;" parent="3fQte9pRHBFsXC9MxjXT-1" vertex="1">
          <mxGeometry x="69" y="324" width="221" height="303" as="geometry" />
        </mxCell>
        <mxCell id="3fQte9pRHBFsXC9MxjXT-7" value="«entity»&lt;br&gt;&lt;b&gt;DataFieldAnnotation&lt;/b&gt;" style="html=1;strokeColor=#d79b00;align=center;fillColor=#ffcd28;gradientColor=#ffa500;" parent="3fQte9pRHBFsXC9MxjXT-1" vertex="1">
          <mxGeometry x="98.5" y="152.5" width="160" height="50" as="geometry" />
        </mxCell>
        <mxCell id="5Xt5Fv4t-drIhkhnObpn-6" style="edgeStyle=orthogonalEdgeStyle;rounded=0;orthogonalLoop=1;jettySize=auto;html=1;endArrow=block;endFill=0;endSize=19;" parent="3fQte9pRHBFsXC9MxjXT-1" source="3fQte9pRHBFsXC9MxjXT-9" target="3fQte9pRHBFsXC9MxjXT-7" edge="1">
          <mxGeometry relative="1" as="geometry">
            <Array as="points">
              <mxPoint x="553" y="246" />
              <mxPoint x="179" y="246" />
            </Array>
          </mxGeometry>
        </mxCell>
        <mxCell id="3fQte9pRHBFsXC9MxjXT-9" value="«entity»&lt;br&gt;&lt;b&gt;ResourceProfileLogAnnotation&lt;/b&gt;" style="html=1;strokeColor=#d79b00;align=center;fillColor=#ffcd28;gradientColor=#ffa500;" parent="3fQte9pRHBFsXC9MxjXT-1" vertex="1">
          <mxGeometry x="425" y="274" width="245" height="50" as="geometry" />
        </mxCell>
        <mxCell id="3fQte9pRHBFsXC9MxjXT-26" value="" style="rounded=0;whiteSpace=wrap;html=1;strokeColor=#666666;align=left;fillColor=#f5f5f5;fontColor=#333333;" parent="3fQte9pRHBFsXC9MxjXT-1" vertex="1">
          <mxGeometry x="425" y="323.5" width="245" height="29" as="geometry" />
        </mxCell>
        <mxCell id="3fQte9pRHBFsXC9MxjXT-46" value="«entity»&lt;br&gt;&lt;b&gt;Asset&lt;/b&gt;" style="html=1;strokeColor=#d6b656;align=center;fillColor=#fff2cc;gradientColor=#ffd966;" parent="3fQte9pRHBFsXC9MxjXT-1" vertex="1">
          <mxGeometry x="467.5" y="600" width="160" height="50" as="geometry" />
        </mxCell>
        <mxCell id="3fQte9pRHBFsXC9MxjXT-47" value="*" style="text;html=1;strokeColor=none;fillColor=none;align=center;verticalAlign=middle;whiteSpace=wrap;rounded=0;" parent="3fQte9pRHBFsXC9MxjXT-1" vertex="1">
          <mxGeometry x="544.5" y="579.5" width="26" height="18" as="geometry" />
        </mxCell>
        <mxCell id="3fQte9pRHBFsXC9MxjXT-48" value="resourceProfileData" style="text;html=1;strokeColor=none;fillColor=none;align=center;verticalAlign=middle;whiteSpace=wrap;rounded=0;" parent="3fQte9pRHBFsXC9MxjXT-1" vertex="1">
          <mxGeometry x="415" y="576.5" width="130" height="20" as="geometry" />
        </mxCell>
        <mxCell id="3fQte9pRHBFsXC9MxjXT-49" value="*" style="text;html=1;strokeColor=none;fillColor=none;align=center;verticalAlign=middle;whiteSpace=wrap;rounded=0;" parent="3fQte9pRHBFsXC9MxjXT-1" vertex="1">
          <mxGeometry x="547.5" y="357" width="26" height="18" as="geometry" />
        </mxCell>
        <mxCell id="3fQte9pRHBFsXC9MxjXT-50" value="resourceProfileAnnotations" style="text;html=1;strokeColor=none;fillColor=none;align=center;verticalAlign=middle;whiteSpace=wrap;rounded=0;" parent="3fQte9pRHBFsXC9MxjXT-1" vertex="1">
          <mxGeometry x="402" y="352.5" width="129" height="20" as="geometry" />
        </mxCell>
        <mxCell id="3fQte9pRHBFsXC9MxjXT-51" value="«relationship»&lt;br&gt;&lt;b&gt;ResourceProfileData&lt;/b&gt;" style="html=1;strokeColor=#d79b00;align=center;fillColor=#ffcd28;gradientColor=#ffa500;" parent="3fQte9pRHBFsXC9MxjXT-1" vertex="1">
          <mxGeometry x="633" y="459.5" width="206" height="53" as="geometry" />
        </mxCell>
        <mxCell id="3fQte9pRHBFsXC9MxjXT-52" value="" style="endArrow=none;dashed=1;html=1;" parent="3fQte9pRHBFsXC9MxjXT-1" target="3fQte9pRHBFsXC9MxjXT-51" edge="1">
          <mxGeometry width="50" height="50" relative="1" as="geometry">
            <mxPoint x="549" y="485.5" as="sourcePoint" />
            <mxPoint x="662" y="679.5" as="targetPoint" />
          </mxGeometry>
        </mxCell>
        <mxCell id="3fQte9pRHBFsXC9MxjXT-53" value="" style="rounded=0;whiteSpace=wrap;html=1;strokeColor=#666666;align=center;fillColor=#f5f5f5;fontColor=#333333;" parent="3fQte9pRHBFsXC9MxjXT-1" vertex="1">
          <mxGeometry x="633" y="512.5" width="206" height="31" as="geometry" />
        </mxCell>
        <mxCell id="5Xt5Fv4t-drIhkhnObpn-7" style="edgeStyle=orthogonalEdgeStyle;rounded=0;orthogonalLoop=1;jettySize=auto;html=1;endArrow=block;endFill=0;endSize=19;" parent="3fQte9pRHBFsXC9MxjXT-1" source="5Xt5Fv4t-drIhkhnObpn-0" target="3fQte9pRHBFsXC9MxjXT-7" edge="1">
          <mxGeometry relative="1" as="geometry">
            <Array as="points">
              <mxPoint x="927" y="246" />
              <mxPoint x="179" y="246" />
            </Array>
          </mxGeometry>
        </mxCell>
        <mxCell id="5Xt5Fv4t-drIhkhnObpn-0" value="«entity»&lt;br&gt;&lt;b&gt;FingerprintAnnotation&lt;/b&gt;" style="html=1;strokeColor=#d79b00;align=center;fillColor=#ffcd28;gradientColor=#ffa500;" parent="3fQte9pRHBFsXC9MxjXT-1" vertex="1">
          <mxGeometry x="823" y="268.5" width="207" height="50" as="geometry" />
        </mxCell>
        <mxCell id="5Xt5Fv4t-drIhkhnObpn-1" value="fingerprint : string&lt;br&gt;fingerprintAlgorithm : string&lt;br&gt;hash : long&lt;br&gt;hashAlgorithm : string" style="rounded=0;whiteSpace=wrap;html=1;strokeColor=#666666;align=left;fillColor=#f5f5f5;fontColor=#333333;" parent="3fQte9pRHBFsXC9MxjXT-1" vertex="1">
          <mxGeometry x="823" y="318.5" width="207" height="84.5" as="geometry" />
        </mxCell>
        <mxCell id="3fQte9pRHBFsXC9MxjXT-45" style="edgeStyle=orthogonalEdgeStyle;rounded=0;html=1;endArrow=none;endFill=0;jettySize=auto;orthogonalLoop=1;startArrow=oval;startFill=1;" parent="3fQte9pRHBFsXC9MxjXT-1" source="3fQte9pRHBFsXC9MxjXT-46" target="3fQte9pRHBFsXC9MxjXT-26" edge="1">
          <mxGeometry relative="1" as="geometry" />
        </mxCell>
      </root>
    </mxGraphModel>
  </diagram>
  <diagram name="0625-Data-Class-Discovery" id="-R1DZutaeRMvTo2CzE-K">
    <mxGraphModel dx="2066" dy="1157" grid="0" gridSize="10" guides="1" tooltips="1" connect="1" arrows="1" fold="1" page="1" pageScale="1" pageWidth="1169" pageHeight="827" math="0" shadow="0">
      <root>
        <mxCell id="3fQte9pRHBFsXC9MxjXT-0" />
        <mxCell id="3fQte9pRHBFsXC9MxjXT-1" parent="3fQte9pRHBFsXC9MxjXT-0" />
        <mxCell id="3fQte9pRHBFsXC9MxjXT-2" value="" style="rounded=0;whiteSpace=wrap;html=1;align=left;fillColor=#f0a30a;strokeColor=#000000;fontColor=#ffffff;" parent="3fQte9pRHBFsXC9MxjXT-1" vertex="1">
          <mxGeometry x="20" y="20" width="60" height="20" as="geometry" />
        </mxCell>
        <mxCell id="3fQte9pRHBFsXC9MxjXT-3" value="0625 - Data Class Discovery" style="rounded=0;whiteSpace=wrap;html=1;align=left;verticalAlign=top;fillColor=#f5f5f5;fontColor=#333333;strokeColor=#666666;" parent="3fQte9pRHBFsXC9MxjXT-1" vertex="1">
          <mxGeometry x="20" y="40" width="1060" height="770" as="geometry" />
        </mxCell>
        <mxCell id="cGSyLm3zSO-btJCgS1k9-9" style="edgeStyle=orthogonalEdgeStyle;rounded=0;orthogonalLoop=1;jettySize=auto;html=1;exitX=0.5;exitY=0;exitDx=0;exitDy=0;endArrow=block;endFill=0;endSize=16;" parent="3fQte9pRHBFsXC9MxjXT-1" source="3fQte9pRHBFsXC9MxjXT-4" target="3fQte9pRHBFsXC9MxjXT-7" edge="1">
          <mxGeometry relative="1" as="geometry" />
        </mxCell>
        <mxCell id="3fQte9pRHBFsXC9MxjXT-4" value="«entity»&lt;br&gt;&lt;b&gt;DataClassAnnotation&lt;/b&gt;" style="html=1;strokeColor=#d79b00;align=center;fillColor=#ffcd28;gradientColor=#ffa500;" parent="3fQte9pRHBFsXC9MxjXT-1" vertex="1">
          <mxGeometry x="159" y="296.5" width="238" height="50" as="geometry" />
        </mxCell>
        <mxCell id="3fQte9pRHBFsXC9MxjXT-5" value="candidateDataClassGUIDS : array&amp;lt;string&amp;gt;&lt;div&gt;matchingValues : long&lt;/div&gt;&lt;div&gt;nonMatchingValues : long&lt;/div&gt;" style="rounded=0;whiteSpace=wrap;html=1;strokeColor=#666666;align=left;fillColor=#f5f5f5;fontColor=#333333;" parent="3fQte9pRHBFsXC9MxjXT-1" vertex="1">
          <mxGeometry x="159" y="346.5" width="238" height="71.5" as="geometry" />
        </mxCell>
        <mxCell id="3fQte9pRHBFsXC9MxjXT-7" value="«entity»&lt;br&gt;&lt;b&gt;DataFieldAnnotation&lt;/b&gt;" style="html=1;strokeColor=#d79b00;align=center;fillColor=#ffcd28;gradientColor=#ffa500;" parent="3fQte9pRHBFsXC9MxjXT-1" vertex="1">
          <mxGeometry x="198.5" y="175" width="160" height="50" as="geometry" />
        </mxCell>
        <mxCell id="cGSyLm3zSO-btJCgS1k9-0" value="«entity»&lt;br&gt;&lt;b&gt;DataClass&lt;/b&gt;" style="html=1;strokeColor=#996185;align=center;fillColor=#e6d0de;gradientColor=#d5739d;" parent="3fQte9pRHBFsXC9MxjXT-1" vertex="1">
          <mxGeometry x="693" y="298.5" width="188" height="50" as="geometry" />
        </mxCell>
        <mxCell id="cGSyLm3zSO-btJCgS1k9-1" value="*" style="text;html=1;strokeColor=none;fillColor=none;align=center;verticalAlign=middle;whiteSpace=wrap;rounded=0;" parent="3fQte9pRHBFsXC9MxjXT-1" vertex="1">
          <mxGeometry x="397" y="325" width="40" height="20" as="geometry" />
        </mxCell>
        <mxCell id="cGSyLm3zSO-btJCgS1k9-2" value="*" style="text;html=1;strokeColor=none;fillColor=none;align=center;verticalAlign=middle;whiteSpace=wrap;rounded=0;" parent="3fQte9pRHBFsXC9MxjXT-1" vertex="1">
          <mxGeometry x="650" y="328.5" width="40" height="20" as="geometry" />
        </mxCell>
        <mxCell id="cGSyLm3zSO-btJCgS1k9-3" value="dataClassAnnotations" style="text;html=1;strokeColor=none;fillColor=none;align=center;verticalAlign=middle;whiteSpace=wrap;rounded=0;" parent="3fQte9pRHBFsXC9MxjXT-1" vertex="1">
          <mxGeometry x="397.5" y="298.5" width="132.5" height="20" as="geometry" />
        </mxCell>
        <mxCell id="cGSyLm3zSO-btJCgS1k9-4" value="dataClassMatches" style="text;html=1;strokeColor=none;fillColor=none;align=center;verticalAlign=middle;whiteSpace=wrap;rounded=0;" parent="3fQte9pRHBFsXC9MxjXT-1" vertex="1">
          <mxGeometry x="570" y="301" width="123" height="20" as="geometry" />
        </mxCell>
        <mxCell id="cGSyLm3zSO-btJCgS1k9-5" value="«relationship»&lt;br&gt;&lt;b&gt;DataClassMatch&lt;/b&gt;" style="html=1;strokeColor=#d79b00;align=center;fillColor=#ffcd28;gradientColor=#ffa500;" parent="3fQte9pRHBFsXC9MxjXT-1" vertex="1">
          <mxGeometry x="441" y="486" width="230" height="50" as="geometry" />
        </mxCell>
        <mxCell id="cGSyLm3zSO-btJCgS1k9-6" value="&lt;span&gt;method : string&lt;/span&gt;&lt;br&gt;&lt;span&gt;threshold : int&lt;/span&gt;" style="rounded=0;whiteSpace=wrap;html=1;strokeColor=#666666;align=left;fillColor=#f5f5f5;fontColor=#333333;" parent="3fQte9pRHBFsXC9MxjXT-1" vertex="1">
          <mxGeometry x="442.5" y="536.5" width="226.5" height="53.5" as="geometry" />
        </mxCell>
        <mxCell id="cGSyLm3zSO-btJCgS1k9-7" value="" style="endArrow=none;dashed=1;html=1;exitX=0.5;exitY=0;exitDx=0;exitDy=0;rounded=0;edgeStyle=orthogonalEdgeStyle;" parent="3fQte9pRHBFsXC9MxjXT-1" source="cGSyLm3zSO-btJCgS1k9-5" edge="1">
          <mxGeometry width="50" height="50" relative="1" as="geometry">
            <mxPoint x="375" y="412" as="sourcePoint" />
            <mxPoint x="559" y="324" as="targetPoint" />
            <Array as="points">
              <mxPoint x="556" y="324" />
            </Array>
          </mxGeometry>
        </mxCell>
        <mxCell id="cGSyLm3zSO-btJCgS1k9-8" style="edgeStyle=orthogonalEdgeStyle;rounded=0;orthogonalLoop=1;jettySize=auto;html=1;entryX=0;entryY=0.5;entryDx=0;entryDy=0;endArrow=oval;endFill=1;" parent="3fQte9pRHBFsXC9MxjXT-1" target="cGSyLm3zSO-btJCgS1k9-0" edge="1">
          <mxGeometry relative="1" as="geometry">
            <Array as="points">
              <mxPoint x="688" y="324" />
            </Array>
            <mxPoint x="397" y="323.5" as="sourcePoint" />
            <mxPoint x="437" y="528.5" as="targetPoint" />
          </mxGeometry>
        </mxCell>
      </root>
    </mxGraphModel>
  </diagram>
  <diagram name="0630-Semantic-Discovery" id="GZctelpP9FeY2vWRSHyo">
    <mxGraphModel dx="1234" dy="836" grid="0" gridSize="10" guides="1" tooltips="1" connect="1" arrows="1" fold="1" page="1" pageScale="1" pageWidth="1169" pageHeight="827" math="0" shadow="0">
      <root>
        <mxCell id="3fQte9pRHBFsXC9MxjXT-0" />
        <mxCell id="3fQte9pRHBFsXC9MxjXT-1" parent="3fQte9pRHBFsXC9MxjXT-0" />
        <mxCell id="3fQte9pRHBFsXC9MxjXT-2" value="" style="rounded=0;whiteSpace=wrap;html=1;align=left;fillColor=#f0a30a;strokeColor=#000000;fontColor=#ffffff;" parent="3fQte9pRHBFsXC9MxjXT-1" vertex="1">
          <mxGeometry x="20" y="20" width="60" height="20" as="geometry" />
        </mxCell>
        <mxCell id="3fQte9pRHBFsXC9MxjXT-3" value="0630 - Semantic Discovery" style="rounded=0;whiteSpace=wrap;html=1;align=left;verticalAlign=top;fillColor=#f5f5f5;fontColor=#333333;strokeColor=#666666;" parent="3fQte9pRHBFsXC9MxjXT-1" vertex="1">
          <mxGeometry x="20" y="40" width="1060" height="432" as="geometry" />
        </mxCell>
        <mxCell id="BSAcp2piibbuTjbXn-4d-0" style="edgeStyle=orthogonalEdgeStyle;rounded=0;orthogonalLoop=1;jettySize=auto;html=1;exitX=0.5;exitY=0;exitDx=0;exitDy=0;entryX=0.5;entryY=1;entryDx=0;entryDy=0;endArrow=block;endFill=0;endSize=20;" edge="1" parent="3fQte9pRHBFsXC9MxjXT-1" source="3fQte9pRHBFsXC9MxjXT-4" target="3fQte9pRHBFsXC9MxjXT-7">
          <mxGeometry relative="1" as="geometry" />
        </mxCell>
        <mxCell id="3fQte9pRHBFsXC9MxjXT-4" value="«entity»&lt;br&gt;&lt;b&gt;SemanticAnnotation&lt;/b&gt;" style="html=1;strokeColor=#d79b00;align=center;fillColor=#ffcd28;gradientColor=#ffa500;" parent="3fQte9pRHBFsXC9MxjXT-1" vertex="1">
          <mxGeometry x="386" y="231.5" width="291" height="50" as="geometry" />
        </mxCell>
        <mxCell id="3fQte9pRHBFsXC9MxjXT-5" value="informalTerm : string&lt;br&gt;candidateGlossaryTermGUIDs : array&amp;lt;string&amp;gt;&lt;br&gt;subjectAreaName : string&lt;br&gt;candidateGlossaryFolderGUIDs : array&amp;lt;string&amp;gt;&amp;nbsp;" style="rounded=0;whiteSpace=wrap;html=1;strokeColor=#666666;align=left;fillColor=#f5f5f5;fontColor=#333333;" parent="3fQte9pRHBFsXC9MxjXT-1" vertex="1">
          <mxGeometry x="386" y="281.5" width="290" height="82" as="geometry" />
        </mxCell>
        <mxCell id="3fQte9pRHBFsXC9MxjXT-7" value="«entity»&lt;br&gt;&lt;b&gt;DataFieldAnnotation&lt;/b&gt;" style="html=1;strokeColor=#d79b00;align=center;fillColor=#ffcd28;gradientColor=#ffa500;" parent="3fQte9pRHBFsXC9MxjXT-1" vertex="1">
          <mxGeometry x="451.5" y="110" width="160" height="50" as="geometry" />
        </mxCell>
      </root>
    </mxGraphModel>
  </diagram>
  <diagram name="0635-Classification-Discovery" id="5UBDvZQWXgGwnUjIh7yy">
    <mxGraphModel dx="1234" dy="836" grid="0" gridSize="10" guides="1" tooltips="1" connect="1" arrows="1" fold="1" page="1" pageScale="1" pageWidth="1169" pageHeight="827" math="0" shadow="0">
      <root>
        <mxCell id="3fQte9pRHBFsXC9MxjXT-0" />
        <mxCell id="3fQte9pRHBFsXC9MxjXT-1" parent="3fQte9pRHBFsXC9MxjXT-0" />
        <mxCell id="3fQte9pRHBFsXC9MxjXT-2" value="" style="rounded=0;whiteSpace=wrap;html=1;align=left;fillColor=#f0a30a;strokeColor=#000000;fontColor=#ffffff;" parent="3fQte9pRHBFsXC9MxjXT-1" vertex="1">
          <mxGeometry x="20" y="20" width="60" height="20" as="geometry" />
        </mxCell>
        <mxCell id="3fQte9pRHBFsXC9MxjXT-3" value="0635 - Classification Discovery" style="rounded=0;whiteSpace=wrap;html=1;align=left;verticalAlign=top;fillColor=#f5f5f5;fontColor=#333333;strokeColor=#666666;" parent="3fQte9pRHBFsXC9MxjXT-1" vertex="1">
          <mxGeometry x="20" y="40" width="1060" height="451" as="geometry" />
        </mxCell>
        <mxCell id="zlZLRfiUcNdYD3J2zsmA-0" style="edgeStyle=orthogonalEdgeStyle;rounded=0;orthogonalLoop=1;jettySize=auto;html=1;exitX=0.5;exitY=0;exitDx=0;exitDy=0;entryX=0.5;entryY=1;entryDx=0;entryDy=0;endArrow=block;endFill=0;endSize=20;" edge="1" parent="3fQte9pRHBFsXC9MxjXT-1" source="3fQte9pRHBFsXC9MxjXT-4" target="3fQte9pRHBFsXC9MxjXT-7">
          <mxGeometry relative="1" as="geometry" />
        </mxCell>
        <mxCell id="3fQte9pRHBFsXC9MxjXT-4" value="«entity»&lt;br&gt;&lt;b&gt;ClassificationAnnotation&lt;/b&gt;" style="html=1;strokeColor=#d79b00;align=center;fillColor=#ffcd28;gradientColor=#ffa500;" parent="3fQte9pRHBFsXC9MxjXT-1" vertex="1">
          <mxGeometry x="381" y="259.5" width="291" height="50" as="geometry" />
        </mxCell>
        <mxCell id="3fQte9pRHBFsXC9MxjXT-5" value="candidateClassifications : map&amp;lt;string, string&amp;gt;&lt;br&gt;" style="rounded=0;whiteSpace=wrap;html=1;strokeColor=#666666;align=left;fillColor=#f5f5f5;fontColor=#333333;" parent="3fQte9pRHBFsXC9MxjXT-1" vertex="1">
          <mxGeometry x="381" y="309.5" width="290" height="41" as="geometry" />
        </mxCell>
        <mxCell id="3fQte9pRHBFsXC9MxjXT-7" value="«entity»&lt;br&gt;&lt;b&gt;DataFieldAnnotation&lt;/b&gt;" style="html=1;strokeColor=#d79b00;align=center;fillColor=#ffcd28;gradientColor=#ffa500;" parent="3fQte9pRHBFsXC9MxjXT-1" vertex="1">
          <mxGeometry x="446.5" y="138" width="160" height="50" as="geometry" />
        </mxCell>
      </root>
    </mxGraphModel>
  </diagram>
  <diagram name="0640-Quality-Scores" id="jJTOMg1ePZBNvLnBZXPd">
    <mxGraphModel dx="1234" dy="836" grid="0" gridSize="10" guides="1" tooltips="1" connect="1" arrows="1" fold="1" page="1" pageScale="1" pageWidth="1169" pageHeight="827" math="0" shadow="0">
      <root>
        <mxCell id="3fQte9pRHBFsXC9MxjXT-0" />
        <mxCell id="3fQte9pRHBFsXC9MxjXT-1" parent="3fQte9pRHBFsXC9MxjXT-0" />
        <mxCell id="3fQte9pRHBFsXC9MxjXT-2" value="" style="rounded=0;whiteSpace=wrap;html=1;align=left;fillColor=#f0a30a;strokeColor=#000000;fontColor=#ffffff;" parent="3fQte9pRHBFsXC9MxjXT-1" vertex="1">
          <mxGeometry x="20" y="20" width="60" height="20" as="geometry" />
        </mxCell>
        <mxCell id="3fQte9pRHBFsXC9MxjXT-3" value="0640 - Quality Scores" style="rounded=0;whiteSpace=wrap;html=1;align=left;verticalAlign=top;fillColor=#f5f5f5;fontColor=#333333;strokeColor=#666666;" parent="3fQte9pRHBFsXC9MxjXT-1" vertex="1">
          <mxGeometry x="20" y="40" width="1060" height="422" as="geometry" />
        </mxCell>
        <mxCell id="OX9DbTZkUkWyREyk7zA_-0" style="edgeStyle=orthogonalEdgeStyle;rounded=0;orthogonalLoop=1;jettySize=auto;html=1;exitX=0.5;exitY=0;exitDx=0;exitDy=0;endArrow=block;endFill=0;strokeWidth=1;endSize=18;" edge="1" parent="3fQte9pRHBFsXC9MxjXT-1" source="3fQte9pRHBFsXC9MxjXT-4" target="3fQte9pRHBFsXC9MxjXT-7">
          <mxGeometry relative="1" as="geometry" />
        </mxCell>
        <mxCell id="3fQte9pRHBFsXC9MxjXT-4" value="«entity»&lt;br&gt;&lt;b&gt;QualityAnnotation&lt;/b&gt;" style="html=1;strokeColor=#d79b00;align=center;fillColor=#ffcd28;gradientColor=#ffa500;" parent="3fQte9pRHBFsXC9MxjXT-1" vertex="1">
          <mxGeometry x="381" y="248.5" width="291" height="50" as="geometry" />
        </mxCell>
        <mxCell id="3fQte9pRHBFsXC9MxjXT-5" value="qualityDimension : string&lt;br&gt;qualityScore : int&lt;br&gt;" style="rounded=0;whiteSpace=wrap;html=1;strokeColor=#666666;align=left;fillColor=#f5f5f5;fontColor=#333333;" parent="3fQte9pRHBFsXC9MxjXT-1" vertex="1">
          <mxGeometry x="381" y="298.5" width="290" height="41" as="geometry" />
        </mxCell>
        <mxCell id="3fQte9pRHBFsXC9MxjXT-7" value="«entity»&lt;br&gt;&lt;b&gt;DataFieldAnnotation&lt;/b&gt;" style="html=1;strokeColor=#d79b00;align=center;fillColor=#ffcd28;gradientColor=#ffa500;" parent="3fQte9pRHBFsXC9MxjXT-1" vertex="1">
          <mxGeometry x="446.5" y="127" width="160" height="50" as="geometry" />
        </mxCell>
      </root>
    </mxGraphModel>
  </diagram>
  <diagram name="0650-Relationship-Discovery" id="QSSlflKIkFGxEyriOrlx">
    <mxGraphModel dx="1234" dy="836" grid="0" gridSize="10" guides="1" tooltips="1" connect="1" arrows="1" fold="1" page="1" pageScale="1" pageWidth="1169" pageHeight="827" math="0" shadow="0">
      <root>
        <mxCell id="3fQte9pRHBFsXC9MxjXT-0" />
        <mxCell id="3fQte9pRHBFsXC9MxjXT-1" parent="3fQte9pRHBFsXC9MxjXT-0" />
        <mxCell id="3fQte9pRHBFsXC9MxjXT-2" value="" style="rounded=0;whiteSpace=wrap;html=1;align=left;fillColor=#f0a30a;strokeColor=#000000;fontColor=#ffffff;" parent="3fQte9pRHBFsXC9MxjXT-1" vertex="1">
          <mxGeometry x="20" y="20" width="60" height="20" as="geometry" />
        </mxCell>
        <mxCell id="3fQte9pRHBFsXC9MxjXT-3" value="0650 - Relationship Discovery" style="rounded=0;whiteSpace=wrap;html=1;align=left;verticalAlign=top;fillColor=#f5f5f5;fontColor=#333333;strokeColor=#666666;" parent="3fQte9pRHBFsXC9MxjXT-1" vertex="1">
          <mxGeometry x="20" y="40" width="1060" height="456" as="geometry" />
        </mxCell>
        <mxCell id="uAw3uClMCo8qQMAZBOAp-0" style="edgeStyle=orthogonalEdgeStyle;rounded=0;orthogonalLoop=1;jettySize=auto;html=1;exitX=0.5;exitY=0;exitDx=0;exitDy=0;entryX=0.5;entryY=1;entryDx=0;entryDy=0;endArrow=block;endFill=0;endSize=20;" edge="1" parent="3fQte9pRHBFsXC9MxjXT-1" source="Iylb2oAe5YX1Iiw9ucXV-0" target="Iylb2oAe5YX1Iiw9ucXV-3">
          <mxGeometry relative="1" as="geometry" />
        </mxCell>
        <mxCell id="Iylb2oAe5YX1Iiw9ucXV-0" value="«entity»&lt;br&gt;&lt;b&gt;RelationshipAdviceAnnotation&lt;/b&gt;" style="html=1;strokeColor=#d79b00;align=center;fillColor=#ffcd28;gradientColor=#ffa500;" parent="3fQte9pRHBFsXC9MxjXT-1" vertex="1">
          <mxGeometry x="377" y="264.5" width="291" height="50" as="geometry" />
        </mxCell>
        <mxCell id="Iylb2oAe5YX1Iiw9ucXV-1" value="relatedEntityGUID : string&lt;br&gt;relationshipTypeName : string&lt;br&gt;relationshipProperties : map&amp;lt;string, string&amp;gt;" style="rounded=0;whiteSpace=wrap;html=1;strokeColor=#666666;align=left;fillColor=#f5f5f5;fontColor=#333333;" parent="3fQte9pRHBFsXC9MxjXT-1" vertex="1">
          <mxGeometry x="377" y="315" width="290" height="67" as="geometry" />
        </mxCell>
        <mxCell id="Iylb2oAe5YX1Iiw9ucXV-3" value="«entity»&lt;br&gt;&lt;b&gt;DataFieldAnnotation&lt;/b&gt;&lt;br&gt;" style="html=1;strokeColor=#d79b00;align=center;fillColor=#ffcd28;gradientColor=#ffa500;" parent="3fQte9pRHBFsXC9MxjXT-1" vertex="1">
          <mxGeometry x="442.5" y="143" width="160" height="50" as="geometry" />
        </mxCell>
      </root>
    </mxGraphModel>
  </diagram>
  <diagram name="0660-Resource-Measures" id="LoHBolUOBCRSNZfynwki">
    <mxGraphModel dx="2066" dy="1157" grid="0" gridSize="10" guides="1" tooltips="1" connect="1" arrows="1" fold="1" page="1" pageScale="1" pageWidth="1169" pageHeight="827" math="0" shadow="0">
      <root>
        <mxCell id="3fQte9pRHBFsXC9MxjXT-0" />
        <mxCell id="3fQte9pRHBFsXC9MxjXT-1" parent="3fQte9pRHBFsXC9MxjXT-0" />
        <mxCell id="3fQte9pRHBFsXC9MxjXT-2" value="" style="rounded=0;whiteSpace=wrap;html=1;align=left;fillColor=#f0a30a;strokeColor=#000000;fontColor=#ffffff;" parent="3fQte9pRHBFsXC9MxjXT-1" vertex="1">
          <mxGeometry x="20" y="20" width="60" height="20" as="geometry" />
        </mxCell>
        <mxCell id="3fQte9pRHBFsXC9MxjXT-3" value="0660 - Resource Measures" style="rounded=0;whiteSpace=wrap;html=1;align=left;verticalAlign=top;fillColor=#f5f5f5;fontColor=#333333;strokeColor=#666666;" parent="3fQte9pRHBFsXC9MxjXT-1" vertex="1">
          <mxGeometry x="20" y="40" width="1060" height="654" as="geometry" />
        </mxCell>
        <mxCell id="OhB-_SdXHbOk1R6BUAcx-0" style="edgeStyle=orthogonalEdgeStyle;rounded=0;orthogonalLoop=1;jettySize=auto;html=1;exitX=0.5;exitY=0;exitDx=0;exitDy=0;endArrow=block;endFill=0;endSize=15;" parent="3fQte9pRHBFsXC9MxjXT-1" source="3fQte9pRHBFsXC9MxjXT-4" target="3fQte9pRHBFsXC9MxjXT-7" edge="1">
          <mxGeometry relative="1" as="geometry" />
        </mxCell>
        <mxCell id="3fQte9pRHBFsXC9MxjXT-4" value="«entity»&lt;br&gt;&lt;b&gt;ResourceMeasureAnnotation&lt;/b&gt;" style="html=1;strokeColor=#d79b00;align=center;fillColor=#ffcd28;gradientColor=#ffa500;" parent="3fQte9pRHBFsXC9MxjXT-1" vertex="1">
          <mxGeometry x="362" y="264.5" width="291" height="50" as="geometry" />
        </mxCell>
        <mxCell id="3fQte9pRHBFsXC9MxjXT-5" value="resourceProperties : map&amp;lt;string, string&amp;gt;" style="rounded=0;whiteSpace=wrap;html=1;strokeColor=#666666;align=left;fillColor=#f5f5f5;fontColor=#333333;" parent="3fQte9pRHBFsXC9MxjXT-1" vertex="1">
          <mxGeometry x="362" y="314.5" width="290" height="41" as="geometry" />
        </mxCell>
        <mxCell id="3fQte9pRHBFsXC9MxjXT-7" value="«entity»&lt;br&gt;&lt;b&gt;Annotation&lt;/b&gt;" style="html=1;strokeColor=#d79b00;align=center;fillColor=#ffcd28;gradientColor=#ffa500;" parent="3fQte9pRHBFsXC9MxjXT-1" vertex="1">
          <mxGeometry x="427.5" y="143" width="160" height="50" as="geometry" />
        </mxCell>
        <mxCell id="OhB-_SdXHbOk1R6BUAcx-1" style="edgeStyle=orthogonalEdgeStyle;rounded=0;orthogonalLoop=1;jettySize=auto;html=1;exitX=0.5;exitY=0;exitDx=0;exitDy=0;entryX=0.5;entryY=1;entryDx=0;entryDy=0;endArrow=block;endFill=0;endSize=15;" parent="3fQte9pRHBFsXC9MxjXT-1" source="3fQte9pRHBFsXC9MxjXT-9" target="3fQte9pRHBFsXC9MxjXT-5" edge="1">
          <mxGeometry relative="1" as="geometry" />
        </mxCell>
        <mxCell id="3fQte9pRHBFsXC9MxjXT-9" value="«entity»&lt;br&gt;&lt;b&gt;ResourcePhysicalStatusAnnotation&lt;/b&gt;" style="html=1;strokeColor=#d79b00;align=center;fillColor=#ffcd28;gradientColor=#ffa500;" parent="3fQte9pRHBFsXC9MxjXT-1" vertex="1">
          <mxGeometry x="362" y="428" width="291" height="50" as="geometry" />
        </mxCell>
        <mxCell id="3fQte9pRHBFsXC9MxjXT-10" value="resourceCreateTime : date&lt;br&gt;resourceUpdateTime : date&lt;div&gt;resourceLastAccessTime : date&lt;br&gt;size : long&lt;br&gt;encodingType : string&lt;/div&gt;" style="rounded=0;whiteSpace=wrap;html=1;strokeColor=#666666;align=left;fillColor=#f5f5f5;fontColor=#333333;" parent="3fQte9pRHBFsXC9MxjXT-1" vertex="1">
          <mxGeometry x="362" y="478.5" width="290" height="95.5" as="geometry" />
        </mxCell>
      </root>
    </mxGraphModel>
  </diagram>
  <diagram name="0690-Request-For-Action" id="Q7AzQiPNs1MVR_Eyc2H3">
    <mxGraphModel dx="2066" dy="1157" grid="0" gridSize="10" guides="1" tooltips="1" connect="1" arrows="1" fold="1" page="1" pageScale="1" pageWidth="1169" pageHeight="827" math="0" shadow="0">
      <root>
        <mxCell id="3fQte9pRHBFsXC9MxjXT-0" />
        <mxCell id="3fQte9pRHBFsXC9MxjXT-1" parent="3fQte9pRHBFsXC9MxjXT-0" />
        <mxCell id="3fQte9pRHBFsXC9MxjXT-2" value="" style="rounded=0;whiteSpace=wrap;html=1;align=left;fillColor=#f0a30a;strokeColor=#000000;fontColor=#ffffff;" parent="3fQte9pRHBFsXC9MxjXT-1" vertex="1">
          <mxGeometry x="20" y="20" width="60" height="20" as="geometry" />
        </mxCell>
        <mxCell id="3fQte9pRHBFsXC9MxjXT-3" value="0690 - Request For Action" style="rounded=0;whiteSpace=wrap;html=1;align=left;verticalAlign=top;fillColor=#f5f5f5;fontColor=#333333;strokeColor=#666666;" parent="3fQte9pRHBFsXC9MxjXT-1" vertex="1">
          <mxGeometry x="20" y="40" width="1060" height="770" as="geometry" />
        </mxCell>
        <mxCell id="QSAlGY5-6Dqzqzm_0c3b-0" style="edgeStyle=orthogonalEdgeStyle;rounded=0;orthogonalLoop=1;jettySize=auto;html=1;exitX=0.5;exitY=0;exitDx=0;exitDy=0;endArrow=block;endFill=0;endSize=18;" parent="3fQte9pRHBFsXC9MxjXT-1" source="3fQte9pRHBFsXC9MxjXT-4" target="3fQte9pRHBFsXC9MxjXT-7" edge="1">
          <mxGeometry relative="1" as="geometry" />
        </mxCell>
        <mxCell id="3fQte9pRHBFsXC9MxjXT-4" value="«entity»&lt;br&gt;&lt;b&gt;RequestForAction&lt;/b&gt;" style="html=1;strokeColor=#d79b00;align=center;fillColor=#ffcd28;gradientColor=#ffa500;" parent="3fQte9pRHBFsXC9MxjXT-1" vertex="1">
          <mxGeometry x="363" y="279.5" width="249" height="50" as="geometry" />
        </mxCell>
        <mxCell id="3fQte9pRHBFsXC9MxjXT-5" value="&lt;span&gt;actionSourceName : string&lt;br&gt;&lt;/span&gt;&lt;span&gt;actionRequested : string&lt;/span&gt;&lt;br&gt;&lt;span&gt;actionProperties : map&amp;lt;string, string&amp;gt;&lt;br&gt;&lt;/span&gt;" style="rounded=0;whiteSpace=wrap;html=1;strokeColor=#666666;align=left;fillColor=#f5f5f5;fontColor=#333333;" parent="3fQte9pRHBFsXC9MxjXT-1" vertex="1">
          <mxGeometry x="364" y="329.5" width="247" height="59" as="geometry" />
        </mxCell>
        <mxCell id="3fQte9pRHBFsXC9MxjXT-7" value="«entity»&lt;br&gt;&lt;b&gt;DataFieldAnnotation&lt;/b&gt;" style="html=1;strokeColor=#d79b00;align=center;fillColor=#ffcd28;gradientColor=#ffa500;" parent="3fQte9pRHBFsXC9MxjXT-1" vertex="1">
          <mxGeometry x="407.5" y="158" width="160" height="50" as="geometry" />
        </mxCell>
        <mxCell id="A7pdh_Pz79CRcEmlnDh4-0" value="" style="endArrow=none;dashed=1;html=1;entryX=0;entryY=0.5;entryDx=0;entryDy=0;" parent="3fQte9pRHBFsXC9MxjXT-1" target="A7pdh_Pz79CRcEmlnDh4-6" edge="1">
          <mxGeometry width="50" height="50" relative="1" as="geometry">
            <mxPoint x="489" y="478" as="sourcePoint" />
            <mxPoint x="551.22" y="516.875" as="targetPoint" />
          </mxGeometry>
        </mxCell>
        <mxCell id="A7pdh_Pz79CRcEmlnDh4-1" value="*" style="text;html=1;strokeColor=none;fillColor=none;align=center;verticalAlign=middle;whiteSpace=wrap;rounded=0;" parent="3fQte9pRHBFsXC9MxjXT-1" vertex="1">
          <mxGeometry x="447" y="393" width="40" height="20" as="geometry" />
        </mxCell>
        <mxCell id="A7pdh_Pz79CRcEmlnDh4-2" value="actionTargetName : string&lt;br&gt;" style="rounded=0;whiteSpace=wrap;html=1;strokeColor=#666666;align=left;fillColor=#f5f5f5;fontColor=#333333;" parent="3fQte9pRHBFsXC9MxjXT-1" vertex="1">
          <mxGeometry x="651" y="505" width="206" height="37.25" as="geometry" />
        </mxCell>
        <mxCell id="A7pdh_Pz79CRcEmlnDh4-3" value="identifiedByRequestForActions" style="text;html=1;strokeColor=none;fillColor=none;align=center;verticalAlign=middle;whiteSpace=wrap;rounded=0;" parent="3fQte9pRHBFsXC9MxjXT-1" vertex="1">
          <mxGeometry x="528" y="393" width="104" height="20" as="geometry" />
        </mxCell>
        <mxCell id="A7pdh_Pz79CRcEmlnDh4-4" value="«entity»&lt;br&gt;&lt;b&gt;Referenceable&lt;/b&gt;" style="html=1;strokeColor=#d6b656;align=center;fillColor=#fff2cc;gradientColor=#ffd966;" parent="3fQte9pRHBFsXC9MxjXT-1" vertex="1">
          <mxGeometry x="407.5" y="600" width="160" height="50" as="geometry" />
        </mxCell>
        <mxCell id="A7pdh_Pz79CRcEmlnDh4-5" value="requestForActionTargets" style="text;html=1;strokeColor=none;fillColor=none;align=center;verticalAlign=middle;whiteSpace=wrap;rounded=0;" parent="3fQte9pRHBFsXC9MxjXT-1" vertex="1">
          <mxGeometry x="359" y="575" width="106" height="20" as="geometry" />
        </mxCell>
        <mxCell id="A7pdh_Pz79CRcEmlnDh4-6" value="«relationship»&lt;br&gt;&lt;b&gt;RequestForActionTarget&lt;/b&gt;" style="html=1;strokeColor=#d79b00;align=center;fillColor=#ffcd28;gradientColor=#ffa500;" parent="3fQte9pRHBFsXC9MxjXT-1" vertex="1">
          <mxGeometry x="651" y="451" width="206" height="53" as="geometry" />
        </mxCell>
        <mxCell id="A7pdh_Pz79CRcEmlnDh4-7" value="*" style="text;html=1;strokeColor=none;fillColor=none;align=center;verticalAlign=middle;whiteSpace=wrap;rounded=0;" parent="3fQte9pRHBFsXC9MxjXT-1" vertex="1">
          <mxGeometry x="482" y="575" width="40" height="20" as="geometry" />
        </mxCell>
        <mxCell id="A7pdh_Pz79CRcEmlnDh4-8" value="" style="endArrow=none;html=1;edgeStyle=orthogonalEdgeStyle;entryX=0.5;entryY=1;entryDx=0;entryDy=0;rounded=0;startArrow=oval;startFill=1;strokeWidth=1;exitX=0.5;exitY=0;exitDx=0;exitDy=0;" parent="3fQte9pRHBFsXC9MxjXT-1" source="A7pdh_Pz79CRcEmlnDh4-4" target="3fQte9pRHBFsXC9MxjXT-5" edge="1">
          <mxGeometry width="50" height="50" relative="1" as="geometry">
            <mxPoint x="426.5" y="284.75" as="sourcePoint" />
            <mxPoint x="1095.5" y="597.75" as="targetPoint" />
            <Array as="points">
              <mxPoint x="488" y="575" />
            </Array>
          </mxGeometry>
        </mxCell>
      </root>
    </mxGraphModel>
  </diagram>
</mxfile>
